<mxfile host="65bd71144e">
    <diagram id="zHtTZhasikZaJkBOkGYX" name="Page-1">
        <mxGraphModel dx="621" dy="261" grid="1" gridSize="10" guides="1" tooltips="1" connect="1" arrows="1" fold="1" page="1" pageScale="1" pageWidth="850" pageHeight="1100" math="0" shadow="0">
            <root>
                <mxCell id="0"/>
                <mxCell id="1" parent="0"/>
                <mxCell id="4" style="edgeStyle=none;html=1;entryX=0;entryY=0.5;entryDx=0;entryDy=0;" parent="1" source="2" target="3" edge="1">
                    <mxGeometry relative="1" as="geometry"/>
                </mxCell>
                <mxCell id="2" value="image to csv" style="rounded=0;whiteSpace=wrap;html=1;" parent="1" vertex="1">
                    <mxGeometry x="40" y="230" width="120" height="80" as="geometry"/>
                </mxCell>
                <mxCell id="3" value="healthy_patient_cnn" style="rounded=0;whiteSpace=wrap;html=1;" parent="1" vertex="1">
                    <mxGeometry x="290" y="230" width="120" height="80" as="geometry"/>
                </mxCell>
                <mxCell id="5" value="kidneystone dataset&lt;br&gt;every row is pic&amp;nbsp;&lt;br&gt;the final column of row is the result&amp;nbsp;&lt;br&gt;healthy or patiant" style="text;html=1;strokeColor=none;fillColor=none;align=center;verticalAlign=middle;whiteSpace=wrap;rounded=0;" parent="1" vertex="1">
                    <mxGeometry x="170" y="330" width="110" height="70" as="geometry"/>
                </mxCell>
            </root>
        </mxGraphModel>
    </diagram>
</mxfile>
